<mxfile host="app.diagrams.net" modified="2023-05-26T05:39:05.606Z" agent="Mozilla/5.0 (Windows NT 10.0; Win64; x64) AppleWebKit/537.36 (KHTML, like Gecko) Chrome/112.0.0.0 Whale/3.20.182.14 Safari/537.36" version="21.3.4" etag="1pw1vd62fth8UXmIQcqd" type="github">
  <diagram name="페이지-1" id="mIiHc1oRgKOlbdh5DrA7">
    <mxGraphModel>
      <root>
        <mxCell id="0" />
        <mxCell id="1" parent="0" />
      </root>
    </mxGraphModel>
  </diagram>
</mxfile>
